<svg width="53" height="31" viewBox="0 0 53 31" fill="none" xmlns="http://www.w3.org/2000/svg">
<path d="M0 6.2V24.8C0 28.2197 2.37672 31 5.3 31H13.25V0H5.3C2.37672 0 0 2.78031 0 6.2ZM47.7 0H39.75V31H47.7C50.6233 31 53 28.2197 53 24.8V6.2C53 2.78031 50.6233 0 47.7 0ZM15.9 31H37.1V0H15.9V31ZM30.475 8.525C31.5764 8.525 32.4625 9.56156 32.4625 10.85C32.4625 12.1384 31.5764 13.175 30.475 13.175C29.3736 13.175 28.4875 12.1384 28.4875 10.85C28.4875 9.56156 29.3736 8.525 30.475 8.525ZM30.475 17.825C31.5764 17.825 32.4625 18.8616 32.4625 20.15C32.4625 21.4384 31.5764 22.475 30.475 22.475C29.3736 22.475 28.4875 21.4384 28.4875 20.15C28.4875 18.8616 29.3736 17.825 30.475 17.825ZM22.525 8.525C23.6264 8.525 24.5125 9.56156 24.5125 10.85C24.5125 12.1384 23.6264 13.175 22.525 13.175C21.4236 13.175 20.5375 12.1384 20.5375 10.85C20.5375 9.56156 21.4236 8.525 22.525 8.525ZM22.525 17.825C23.6264 17.825 24.5125 18.8616 24.5125 20.15C24.5125 21.4384 23.6264 22.475 22.525 22.475C21.4236 22.475 20.5375 21.4384 20.5375 20.15C20.5375 18.8616 21.4236 17.825 22.525 17.825Z" fill="#F4F7FE"/>
</svg>
