<svg width="50" height="38" viewBox="0 0 50 38" fill="none" xmlns="http://www.w3.org/2000/svg">
<path d="M39.0381 26.1943C39.3953 26.6686 39.5753 27.2218 39.5753 27.8556C39.5753 28.8283 39.2059 29.6373 38.4677 30.2862C37.7284 30.9351 36.6642 31.318 35.269 31.4328V33.0967H33.493V31.44C31.171 31.2529 29.7336 30.1922 29.178 28.2627L31.924 27.7005C32.1775 28.9144 33.0202 29.5221 34.4509 29.5221C35.1194 29.5221 35.6138 29.3931 35.9283 29.1317C36.2429 28.8713 36.4016 28.5596 36.4016 28.191C36.4016 27.8099 36.2429 27.5206 35.9283 27.3266C35.6138 27.1304 34.9121 26.8818 33.8257 26.58C32.8493 26.3144 32.0861 26.0529 31.5365 25.79C30.9877 25.5312 30.5419 25.1697 30.2004 24.7026C29.8551 24.2336 29.6843 23.6876 29.6843 23.0673C29.6843 22.2532 29.9926 21.5186 30.6029 20.867C31.2165 20.2161 32.1774 19.8188 33.4929 19.6728V18.3872H35.2689V19.6728C37.2528 19.8597 38.5407 20.7406 39.1269 22.3158L36.6756 23.1032C36.1999 22.0237 35.4641 21.4827 34.4633 21.4827C33.9626 21.4827 33.56 21.6022 33.2576 21.8442C32.9527 22.086 32.8003 22.3781 32.8003 22.7229C32.8003 23.0726 32.9465 23.3405 33.2394 23.5296C33.5328 23.7163 34.1579 23.9488 35.1194 24.2238C36.1726 24.5256 37.0027 24.8127 37.6004 25.081C38.2017 25.3495 38.6778 25.7227 39.0381 26.1943ZM50 25.7416C50 32.5126 43.0057 38 34.3754 38C25.7446 38 18.7501 32.5126 18.7501 25.7416C18.7501 18.9711 25.7446 13.4837 34.3754 13.4837C43.0057 13.4837 50 18.9711 50 25.7416ZM46.8754 25.7416C46.8754 20.3334 41.2692 15.9354 34.3754 15.9354C27.4818 15.9354 21.8752 20.3334 21.8752 25.7416C21.8752 31.1501 27.4817 35.5484 34.3754 35.5484C41.2691 35.5484 46.8754 31.1501 46.8754 25.7416ZM25.0001 3.67736H43.7501C44.6139 3.67736 45.3122 3.26539 45.3122 2.75786V0.919098C45.3122 0.41165 44.6139 0 43.7501 0H25.0001C24.1363 0 23.4374 0.41165 23.4374 0.919098V2.75786C23.4375 3.26539 24.1363 3.67736 25.0001 3.67736ZM25.0001 8.58054H43.7501C44.6139 8.58054 45.3122 8.16873 45.3122 7.6612V5.82252C45.3122 5.31491 44.6139 4.90301 43.7501 4.90301H25.0001C24.1363 4.90301 23.4374 5.31483 23.4374 5.82252V7.66128C23.4375 8.16873 24.1363 8.58054 25.0001 8.58054ZM1.56231 33.0967H19.9889C19.0552 31.9761 18.3319 30.7382 17.8529 29.4191H1.56231C0.698768 29.4191 0 29.8307 0 30.339V32.1771C0 32.6846 0.698768 33.0967 1.56231 33.0967ZM20.3124 34.3225H1.56231C0.698768 34.3225 0 34.734 0 35.2416V37.0805C0 37.5879 0.698768 38 1.56231 38H20.3124C21.1761 38 21.8752 37.5879 21.8752 37.0805V35.2416C21.8752 34.734 21.1763 34.3225 20.3124 34.3225ZM1.56231 28.1936H17.4867C17.2975 27.3964 17.1879 26.58 17.1879 25.7416C17.1879 25.3277 17.2182 24.9206 17.267 24.5161H1.56231C0.698768 24.5161 0 24.9278 0 25.4356V27.2737C0 27.782 0.698768 28.1936 1.56231 28.1936ZM25.0001 13.4837H27.258C29.428 12.7033 31.8326 12.2579 34.3753 12.2579C36.9136 12.2579 39.3222 12.7033 41.4917 13.4837H43.7501C44.6139 13.4837 45.3122 13.0719 45.3122 12.5645V10.7257C45.3122 10.2182 44.6139 9.80619 43.7501 9.80619H25.0001C24.1363 9.80619 23.4374 10.2182 23.4374 10.7257V12.5645C23.4375 13.0719 24.1363 13.4837 25.0001 13.4837ZM1.56231 13.4837H20.3124C21.1761 13.4837 21.8752 13.0719 21.8752 12.5645V10.7257C21.8752 10.2182 21.1761 9.80619 20.3124 9.80619H1.56231C0.698768 9.80619 0 10.2182 0 10.7257V12.5645C0 13.0719 0.698768 13.4837 1.56231 13.4837ZM1.56231 23.2903H17.4867C17.7918 21.9879 18.3382 20.7548 19.0861 19.6128H1.56231C0.698768 19.6128 0 20.0244 0 20.5319V22.3712C0 22.8787 0.698768 23.2903 1.56231 23.2903ZM1.56231 18.3871H19.9889C20.5445 17.7168 21.1792 17.0942 21.8752 16.5147V15.6289C21.8752 15.1214 21.1765 14.7098 20.3129 14.7098H1.56231C0.698768 14.7098 0 15.1213 0 15.6289V17.4676C0 17.9751 0.698768 18.3871 1.56231 18.3871Z" fill="white"/>
</svg>
