<svg width="13" height="12" viewBox="0 0 13 12" fill="none" xmlns="http://www.w3.org/2000/svg">
<path d="M7.0456 8.31367C6.88675 8.47429 6.88675 8.73424 7.0456 8.89443C7.20446 9.05502 7.4616 9.05502 7.62004 8.89443L10.4228 6.06051C10.5073 5.97506 10.5434 5.86131 10.5377 5.74957C10.5434 5.63745 10.5073 5.5241 10.4228 5.43867L7.62004 2.60516C7.4616 2.44457 7.20404 2.44457 7.0456 2.60516C6.88675 2.76576 6.88675 3.02574 7.0456 3.1859L9.17556 5.33926H0.40625C0.182 5.33929 0 5.52329 0 5.75C0 5.97671 0.182 6.16071 0.40625 6.16071H9.17556L7.0456 8.31367ZM11.375 0H3.25C2.3526 0 1.625 0.735592 1.625 1.64286V3.28571H2.4375V1.64286C2.4375 1.18943 2.8011 0.821429 3.25 0.821429H11.375C11.8239 0.821429 12.1875 1.18943 12.1875 1.64286V9.85714C12.1875 10.3106 11.8239 10.6786 11.375 10.6786H3.25C2.8011 10.6786 2.4375 10.311 2.4375 9.85714V8.21429H1.625V9.85714C1.625 10.7644 2.3526 11.5 3.25 11.5H11.375C12.2724 11.5 13 10.7644 13 9.85714V1.64286C13 0.735592 12.2724 0 11.375 0Z" fill="white"/>
</svg>
