<svg width="44" height="44" viewBox="0 0 44 44" fill="none" xmlns="http://www.w3.org/2000/svg">
<path fill-rule="evenodd" clip-rule="evenodd" d="M22.7787 23.4667C22.7787 24.2755 23.4833 24.9333 24.3497 24.9333C25.2162 24.9333 25.9208 24.2755 25.9208 23.4667C25.9208 22.6578 25.2162 22 24.3497 22C23.4833 22 22.7787 22.6578 22.7787 23.4667ZM22.7787 16.8667C22.7787 16.0578 22.074 15.4 21.2076 15.4C20.3411 15.4 19.6365 16.0578 19.6365 16.8667C19.6365 17.6755 20.3411 18.3333 21.2076 18.3333C22.074 18.3333 22.7787 17.6755 22.7787 16.8667ZM19.6365 26.4C19.2029 26.4 18.851 26.7293 18.851 27.1333C18.851 27.5374 19.2029 27.8667 19.6365 27.8667C20.0701 27.8667 20.422 27.5374 20.422 27.1333C20.422 26.7293 20.0701 26.4 19.6365 26.4ZM19.6365 24.9333C20.9358 24.9333 21.9931 25.9204 21.9931 27.1333C21.9931 28.3463 20.9358 29.3333 19.6365 29.3333C18.3372 29.3333 17.2799 28.3463 17.2799 27.1333C17.2799 25.9204 18.3372 24.9333 19.6365 24.9333ZM43.7172 42.6844C43.2365 43.5329 42.2168 44 40.8461 44H3.14015C1.3012 44 0.558076 43.164 0.279209 42.6653C-0.252601 41.7157 -0.0177248 40.4455 0.924138 39.1813L15.0552 19.393C15.0552 19.393 15.7088 18.4133 15.7088 16.8667V6.6C15.7088 6.1952 16.0599 5.86667 16.4943 5.86667C16.9287 5.86667 17.2799 6.1952 17.2799 6.6V16.8667C17.2799 18.8723 16.404 20.1476 16.3663 20.2011L7.62244 32.4449C10.1425 32.7749 16.3011 33.3894 21.0175 32.2887C27.4181 30.7956 33.7024 32.2271 33.9663 32.2887C34.3874 32.3869 34.6434 32.7844 34.5382 33.1775C34.4329 33.5698 34.004 33.8074 33.5861 33.7113C33.5256 33.6981 27.4086 32.3099 21.3977 33.7113C19.2186 34.2203 16.7936 34.3897 14.5328 34.3897C10.9751 34.3897 7.82275 33.9709 6.65858 33.7957L2.22264 40.007C1.62641 40.8071 1.42296 41.5426 1.67197 41.9863C1.93827 42.4622 2.70574 42.5333 3.14015 42.5333H40.8461C41.5955 42.5333 42.1367 42.3383 42.3284 41.9987C42.5711 41.5697 42.3622 40.8269 41.7683 40.0129L27.6239 20.207C27.5862 20.1542 26.7064 18.8987 26.7064 16.8667V3.66667C26.7064 3.26187 27.0575 2.93333 27.4919 2.93333H28.2774V1.46667H15.7088V2.93333H24.3497C24.7841 2.93333 25.1353 3.26187 25.1353 3.66667C25.1353 4.07147 24.7841 4.4 24.3497 4.4H15.7088C14.8423 4.4 14.1377 3.7422 14.1377 2.93333V1.46667C14.1377 0.6578 14.8423 0 15.7088 0H28.2774C29.1439 0 29.8485 0.6578 29.8485 1.46667V2.93333C29.8485 3.7422 29.1439 4.4 28.2774 4.4V16.8667C28.2774 18.4338 28.9239 19.3842 28.931 19.393L43.0707 39.193C44.022 40.4961 44.253 41.7384 43.7172 42.6844Z" fill="#F4F7FE"/>
</svg>
