<svg width="46" height="42" viewBox="0 0 46 42" fill="none" xmlns="http://www.w3.org/2000/svg">
<path d="M44.1696 12.0313C42.9495 11.0106 41.4686 10.5002 39.7259 10.5002C37.9841 10.5002 36.5032 11.0106 35.2829 12.0313C34.0636 13.0522 33.4539 14.2916 33.4539 15.7503C33.4539 16.8804 33.8404 17.8923 34.6134 18.7852C35.3872 19.6787 36.394 20.3162 37.6357 20.6992V31.5001C37.6357 33.4325 36.6117 35.0824 34.5648 36.4495C32.5176 37.8164 30.0568 38.5002 27.1815 38.5002C24.3068 38.5002 21.8455 37.8164 19.798 36.4495C17.7509 35.0825 16.7271 33.4325 16.7271 31.5001V27.8908C20.2992 27.5264 23.2829 26.3593 25.6789 24.3904C28.0747 22.422 29.2729 20.125 29.2729 17.4996V3.50022C29.2729 3.02633 29.0654 2.61594 28.6517 2.26953C28.2383 1.9236 27.7473 1.75006 27.1809 1.75006C27.0509 1.75006 26.8763 1.76854 26.6586 1.80484C26.2881 1.25769 25.7768 0.820775 25.1228 0.492177C24.4705 0.163868 23.762 0 22.9998 0C21.8458 0 20.8603 0.342197 20.0434 1.02535C19.2265 1.70907 18.8182 2.53396 18.8182 3.50022C18.8182 4.46609 19.2265 5.29107 20.0434 5.9747C20.8603 6.65833 21.8458 7.00014 22.9998 7.00014C23.7185 7.00014 24.4153 6.83628 25.0906 6.50797V17.5C25.0906 19.4326 24.0671 21.0821 22.0199 22.4496C19.9724 23.8164 17.5111 24.4997 14.6364 24.4997C11.7618 24.4997 9.30044 23.8163 7.25311 22.4496C5.206 21.0825 4.18221 19.4329 4.18221 17.5V6.50797C4.85711 6.83618 5.55454 7.00014 6.27315 7.00014C7.42715 7.00014 8.41283 6.65843 9.22961 5.9747C10.0463 5.29098 10.4544 4.46609 10.4544 3.50022C10.4544 2.53406 10.0463 1.70907 9.22961 1.02535C8.41272 0.342197 7.42704 0 6.27303 0C5.5106 0 4.80264 0.163868 4.14926 0.492177C3.49611 0.820391 2.98404 1.2576 2.61398 1.80484C2.39588 1.76864 2.22184 1.75006 2.09105 1.75006C1.5244 1.75006 1.03454 1.9236 0.620655 2.26953C0.206999 2.61594 0 3.02633 0 3.50022V17.5001C0 20.1251 1.1976 22.4215 3.5936 24.3905C5.98948 26.3594 8.9733 27.5265 12.5452 27.8913V31.5005C12.5452 34.3992 13.9772 36.8737 16.8415 38.9241C19.7057 40.9748 23.1521 42 27.1809 42C31.2111 42 34.6571 40.9748 37.5213 38.9241C40.3861 36.8737 41.817 34.3992 41.817 31.5005V20.6992C43.059 20.3162 44.0662 19.6786 44.8392 18.7852C45.613 17.8922 46 16.8803 46 15.7503C45.9997 14.2921 45.39 13.0521 44.1696 12.0313ZM41.1976 16.9806C40.7832 17.3271 40.293 17.5001 39.7267 17.5001C39.1604 17.5001 38.6709 17.3271 38.2567 16.9806C37.8431 16.6343 37.6364 16.2242 37.6364 15.7503C37.6364 15.2764 37.8431 14.866 38.2567 14.5196C38.6709 14.1736 39.1604 14.0001 39.7267 14.0001C40.293 14.0001 40.7831 14.1736 41.1976 14.5196C41.6111 14.866 41.8179 15.2764 41.8179 15.7503C41.8179 16.2245 41.6111 16.6343 41.1976 16.9806Z" fill="#F4F7FE"/>
</svg>
