<svg width="32" height="30" viewBox="0 0 32 30" fill="none" xmlns="http://www.w3.org/2000/svg">
<path d="M32 14.6137C32 22.6847 24.9675 29.2273 16.2908 29.2273C13.5364 29.2273 10.9486 28.5673 8.69724 27.409L0 30L2.83556 22.1593C1.40516 19.9573 0.581333 17.3747 0.581333 14.6137C0.581333 6.54267 7.61458 0 16.2908 0C24.9682 0 32 6.54267 32 14.6137ZM16.2908 2.32733C9.00765 2.32733 3.08338 7.839 3.08338 14.6137C3.08338 17.302 4.01813 19.7917 5.59929 21.817L3.94916 26.38L9.02471 24.8677C11.11 26.1513 13.6082 26.9 16.2912 26.9C23.5733 26.9 29.4987 21.389 29.4987 14.6143C29.4987 7.83967 23.5737 2.32733 16.2908 2.32733ZM24.2236 17.9793C24.1266 17.8303 23.8702 17.7403 23.4855 17.5613C23.1001 17.3823 21.2064 16.5153 20.8544 16.3963C20.5013 16.277 20.2439 16.217 19.9876 16.5753C19.7312 16.934 18.9931 17.7403 18.768 17.9793C18.5433 18.219 18.3189 18.249 17.9335 18.0697C17.5488 17.8907 16.3083 17.512 14.8373 16.292C13.6928 15.3427 12.9198 14.1707 12.6951 13.8117C12.4708 13.4533 12.6716 13.2597 12.864 13.0813C13.0375 12.9207 13.2494 12.663 13.4418 12.454C13.6348 12.2447 13.6988 12.0957 13.8265 11.8563C13.9556 11.6173 13.8912 11.4083 13.7945 11.2287C13.6985 11.0497 12.9276 9.287 12.6069 8.56967C12.2862 7.853 11.9659 7.97233 11.7408 7.97233C11.5164 7.97233 11.2594 7.94233 11.0027 7.94233C10.746 7.94233 10.3285 8.032 9.97547 8.39033C9.62276 8.749 8.62827 9.61567 8.62827 11.378C8.62827 13.1407 10.0075 14.8437 10.2005 15.0823C10.3929 15.321 12.8636 19.0557 16.7783 20.49C20.6933 21.9237 20.6933 21.4453 21.3995 21.3853C22.1049 21.3257 23.6772 20.519 23.9993 19.683C24.3193 18.8457 24.3193 18.1287 24.2236 17.9793Z" fill="#F4F7FE"/>
</svg>
